<svg width="523px" height="118px" viewBox="0 0 523 118" version="1.1" xmlns="http://www.w3.org/2000/svg" xmlns:xlink="http://www.w3.org/1999/xlink">
    <!-- Generator: Sketch 51.2 (57519) - http://www.bohemiancoding.com/sketch -->
    <title>Group</title>
    <desc>Created with Sketch.</desc>
    <defs>
        <polygon id="path-1" points="0 0.0011 48.5565857 0.0011 48.5565857 58.1181 0 58.1181"/>
        <path d="M344.8925,96.7489774 C342.425821,96.7489774 340.259176,96.5156464 338.3925,96.0489774 C337.659163,95.8489764 337.142502,95.5323129 336.8425,95.0989774 C336.542499,94.6656419 336.3925,93.9823154 336.3925,93.0489774 L336.3925,90.3489774 C336.3925,89.0823044 336.892495,88.4489774 337.8925,88.4489774 C338.225835,88.4489774 338.792496,88.4989769 339.5925,88.5989774 C340.392504,88.6989779 341.292495,88.7489774 342.2925,88.7489774 C344.159176,88.7489774 345.509163,88.3989809 346.3425,87.6989774 C347.175838,86.9989739 347.5925,85.8489854 347.5925,84.2489774 L347.5925,26.2489774 C347.5925,24.9156374 348.25916,24.2489774 349.5925,24.2489774 L355.4925,24.2489774 C356.82584,24.2489774 357.4925,24.9156374 357.4925,26.2489774 L357.4925,83.4489774 C357.4925,87.7823324 356.425844,91.0822994 354.2925,93.3489774 C352.159156,95.6156554 349.025854,96.7489774 344.8925,96.7489774 Z M352.5925,15.2489774 C350.659157,15.2489774 349.142506,14.6989829 348.0425,13.5989774 C346.942495,12.4989719 346.3925,11.0489864 346.3925,9.2489774 C346.3925,7.4489684 346.942495,5.9989829 348.0425,4.8989774 C349.142506,3.7989719 350.659157,3.2489774 352.5925,3.2489774 C354.525843,3.2489774 356.042495,3.7989719 357.1425,4.8989774 C358.242505,5.9989829 358.7925,7.4489684 358.7925,9.2489774 C358.7925,11.0489864 358.242505,12.4989719 357.1425,13.5989774 C356.042495,14.6989829 354.525843,15.2489774 352.5925,15.2489774 Z M394.2925,76.4489774 C386.692462,76.4489774 380.759188,74.0823344 376.4925,69.3489774 C372.225812,64.6156204 370.0925,58.0156864 370.0925,49.5489774 C370.0925,41.1489354 372.225812,34.5823344 376.4925,29.8489774 C380.759188,25.1156204 386.692462,22.7489774 394.2925,22.7489774 C401.892538,22.7489774 407.825812,25.1156204 412.0925,29.8489774 C416.359188,34.5823344 418.4925,41.1489354 418.4925,49.5489774 C418.4925,58.0156864 416.359188,64.6156204 412.0925,69.3489774 C407.825812,74.0823344 401.892538,76.4489774 394.2925,76.4489774 Z M394.2925,68.4489774 C403.692547,68.4489774 408.3925,62.1490404 408.3925,49.5489774 C408.3925,37.0155814 403.692547,30.7489774 394.2925,30.7489774 C384.892453,30.7489774 380.1925,37.0155814 380.1925,49.5489774 C380.1925,62.1490404 384.892453,68.4489774 394.2925,68.4489774 Z M453.7925,68.0489774 C462.992546,68.0489774 467.5925,61.8490394 467.5925,49.4489774 C467.5925,43.1156124 466.475844,38.4156594 464.2425,35.3489774 C462.009156,32.2822954 458.592523,30.7489774 453.9925,30.7489774 C449.259143,30.7489774 444.792521,32.2822954 440.5925,35.3489774 L440.5925,63.2489774 C444.792521,66.4489934 449.192477,68.0489774 453.7925,68.0489774 Z M456.0925,76.0489774 C449.959136,76.0489774 444.592523,73.9156654 439.9925,69.6489774 L439.2925,72.9489774 C439.092499,74.2823174 438.32584,74.9489774 436.9925,74.9489774 L432.6925,74.9489774 C431.35916,74.9489774 430.6925,74.2823174 430.6925,72.9489774 L430.6925,2.9489774 C430.6925,1.6156374 431.35916,0.9489774 432.6925,0.9489774 L438.5925,0.9489774 C439.92584,0.9489774 440.5925,1.6156374 440.5925,2.9489774 L440.5925,29.0489774 C445.592525,24.8489564 450.992471,22.7489774 456.7925,22.7489774 C463.259199,22.7489774 468.359148,25.0822874 472.0925,29.7489774 C475.825852,34.4156674 477.6925,40.8156034 477.6925,48.9489774 C477.6925,57.1490184 475.725853,63.7156194 471.7925,68.6489774 C467.859147,73.5823354 462.625866,76.0489774 456.0925,76.0489774 Z M503.4925,76.4489774 C497.892472,76.4489774 492.859189,75.5156534 488.3925,73.6489774 C487.592496,73.3156424 487.042502,72.9489794 486.7425,72.5489774 C486.442498,72.1489754 486.2925,71.5156484 486.2925,70.6489774 L486.2925,67.8489774 C486.2925,66.6489714 486.692496,66.0489774 487.4925,66.0489774 C487.959169,66.0489774 488.792494,66.2489754 489.9925,66.6489774 C494.392522,68.0489844 498.959143,68.7489774 503.6925,68.7489774 C506.959183,68.7489774 509.442491,68.1156504 511.1425,66.8489774 C512.842509,65.5823044 513.6925,63.7489894 513.6925,61.3489774 C513.6925,59.7489694 513.175839,58.4489824 512.1425,57.4489774 C511.109162,56.4489724 509.225847,55.4489824 506.4925,54.4489774 L497.9925,51.2489774 C490.592463,48.5156304 486.8925,43.8490104 486.8925,37.2489774 C486.8925,32.9156224 488.575816,29.4156574 491.9425,26.7489774 C495.309184,24.0822974 499.725806,22.7489774 505.1925,22.7489774 C509.525855,22.7489774 513.759146,23.5156364 517.8925,25.0489774 C518.692504,25.3156454 519.259165,25.6656419 519.5925,26.0989774 C519.925835,26.5323129 520.0925,27.1823064 520.0925,28.0489774 L520.0925,30.7489774 C520.0925,31.9489834 519.659171,32.5489774 518.7925,32.5489774 C518.325831,32.5489774 517.559172,32.3823124 516.4925,32.0489774 C512.959149,30.9823054 509.359185,30.4489774 505.6925,30.4489774 C499.292468,30.4489774 496.0925,32.6156224 496.0925,36.9489774 C496.0925,38.6823194 496.625828,40.0489724 497.6925,41.0489774 C498.759172,42.0489824 500.859151,43.1489714 503.9925,44.3489774 L511.7925,47.3489774 C515.725853,48.8823184 518.559158,50.6989669 520.2925,52.7989774 C522.025842,54.8989879 522.8925,57.6156274 522.8925,60.9489774 C522.8925,65.6823344 521.125851,69.4489634 517.5925,72.2489774 C514.059149,75.0489914 509.359196,76.4489774 503.4925,76.4489774 Z" id="path-3"/>
    </defs>
    <g id="Page-1" stroke="none" stroke-width="1" fill="none" fill-rule="evenodd">
        <g id="Artboard" transform="translate(-22.000000, -130.000000)">
            <g id="Group" transform="translate(22.000000, 130.000000)">
                <path d="M203.6421,95.677 C184.5651,109.752 156.9081,117.259 133.0931,117.259 C99.7371,117.259 69.6751,104.906 46.9501,84.336 C45.1521,82.759 46.7531,80.544 48.9071,81.802 C73.4331,96.072 103.7651,104.67 135.1111,104.67 C156.2461,104.67 179.4841,100.281 200.8501,91.213 C204.0811,89.852 206.7961,93.336 203.6421,95.677" id="Fill-1" fill="#FFFFFF" fill-rule="nonzero"/>
                <path d="M211.5674,86.5891 C209.1304,83.4671 195.4394,85.1361 189.3024,85.8601 C187.4364,86.0991 187.1444,84.4671 188.8244,83.2681 C199.7424,75.6131 217.6284,77.8081 219.7034,80.3811 C221.7964,82.9781 219.1594,100.9351 208.9334,109.4781 C207.3504,110.8031 205.8544,110.0911 206.5434,108.3541 C208.8554,102.6191 214.0094,89.7281 211.5674,86.5891" id="Fill-3" fill="#FFFFFF" fill-rule="nonzero"/>
                <path d="M189.7324,29.0891 L189.7324,21.6171 C189.7324,20.4901 190.5904,19.7341 191.6114,19.7341 L225.0144,19.7341 C226.0804,19.7341 226.9374,20.5101 226.9374,21.6171 L226.9374,28.0221 C226.9244,29.0891 226.0274,30.4671 224.4194,32.7001 L207.1184,57.4011 C213.5354,57.2611 220.3394,58.2211 226.1654,61.5031 C227.4824,62.2441 227.8284,63.3351 227.9384,64.4191 L227.9384,72.3711 C227.9384,73.4781 226.7274,74.7411 225.4824,74.0721 C215.2024,68.6881 201.5674,68.0861 190.2084,74.1441 C189.0414,74.7411 187.8184,73.5071 187.8184,72.4201 L187.8184,64.8601 C187.8184,63.6451 187.8424,61.5741 189.0674,59.7241 L209.1014,30.9571 L191.6494,30.9571 C190.5904,30.9571 189.7414,30.1961 189.7324,29.0891" id="Fill-5" fill="#FFFFFF" fill-rule="nonzero"/>
                <path d="M67.9238,75.6496 L57.7698,75.6496 C56.8058,75.5776 56.0248,74.8526 55.9398,73.9286 L55.9528,21.7606 C55.9528,20.7256 56.8328,19.8776 57.9128,19.8776 L67.3678,19.8776 C68.3618,19.9326 69.1468,20.6706 69.2198,21.6176 L69.2198,28.4356 L69.4118,28.4356 C71.8668,21.8556 76.5228,18.7696 82.7888,18.7696 C89.1358,18.7696 93.1238,21.8556 95.9608,28.4356 C98.4228,21.8556 104.0228,18.7696 110.0028,18.7696 C114.2648,18.7696 118.9118,20.5306 121.7468,24.4846 C124.9798,28.8736 124.3058,35.2386 124.3058,40.8416 L124.3058,73.7816 C124.3058,74.8166 123.4328,75.6496 122.3498,75.6496 L112.2058,75.6496 C111.1808,75.5776 110.3778,74.7606 110.3778,73.7816 L110.3778,46.1026 C110.3778,43.9276 110.5538,38.4346 110.0908,36.3446 C109.3358,32.8446 107.0478,31.8446 104.1168,31.8446 C101.6518,31.8446 99.0928,33.4976 98.0448,36.1266 C97.0088,38.7576 97.0988,43.1476 97.0988,46.1026 L97.0988,73.7816 C97.0988,74.8166 96.2168,75.6496 95.1428,75.6496 L84.9968,75.6496 C83.9718,75.5776 83.1688,74.7606 83.1688,73.7816 L83.1688,46.1026 C83.1688,40.2996 84.1048,31.7206 76.9018,31.7206 C69.6018,31.7206 69.8848,40.0776 69.8848,46.1026 L69.8848,73.7816 C69.8848,74.8166 69.0048,75.6496 67.9238,75.6496" id="Fill-7" fill="#FFFFFF" fill-rule="nonzero"/>
                <path d="M255.7729,29.4153 C248.2889,29.4153 247.8029,39.6463 247.8029,46.0113 C247.8029,52.3763 247.7179,65.9793 255.6699,65.9793 C263.5509,65.9793 263.9339,54.9913 263.9339,48.3163 C263.9339,43.9283 263.7409,38.6503 262.4189,34.4773 C261.2739,30.8493 258.9949,29.4153 255.7729,29.4153 M255.6699,18.7693 C270.7519,18.7693 278.9169,31.7213 278.9169,48.1893 C278.9169,64.1153 269.9069,76.7403 255.6699,76.7403 C240.9009,76.7403 232.8279,63.7893 232.8279,47.6633 C232.8279,31.4113 240.9909,18.7693 255.6699,18.7693" id="Fill-9" fill="#FFFFFF" fill-rule="nonzero"/>
                <path d="M298.4575,75.6496 L288.3485,75.6496 C287.3225,75.5776 286.5235,74.7606 286.5235,73.7816 L286.5085,21.5586 C286.5965,20.6216 287.4365,19.8776 288.4655,19.8776 L297.8795,19.8776 C298.7685,19.9136 299.5065,20.5306 299.6875,21.3306 L299.6875,29.3046 L299.8875,29.3046 C302.7215,22.1826 306.7135,18.7696 313.7215,18.7696 C318.2725,18.7696 322.7275,20.4196 325.5745,24.9196 C328.2325,29.1086 328.2325,36.1266 328.2325,41.1526 L328.2325,74.0006 C328.1155,74.9276 327.2995,75.6496 326.2935,75.6496 L316.0985,75.6496 C315.1605,75.5776 314.4005,74.8886 314.2815,74.0006 L314.2815,45.6846 C314.2815,39.9536 314.9515,31.6106 307.9305,31.6106 C305.4695,31.6106 303.1895,33.2586 302.0535,35.8026 C300.6395,38.9736 300.4435,42.1516 300.4435,45.6846 L300.4435,73.7816 C300.4395,74.8166 299.5535,75.6496 298.4575,75.6496" id="Fill-11" fill="#FFFFFF" fill-rule="nonzero"/>
                <g id="Group-15" transform="translate(0.000000, 18.259000)">
                    <g id="Fill-13-Clipped">
                        <mask id="mask-2" fill="white">
                            <use xlink:href="#path-1"/>
                        </mask>
                        <g id="path-1"/>
                        <path d="M28.0278,43.2441 C26.4248,46.1111 23.8488,47.8681 20.9988,47.8681 C17.1038,47.8681 14.8158,44.8961 14.8158,40.5011 C14.8158,31.8531 22.5828,30.2761 29.9348,30.2761 L29.9348,32.4711 C29.9348,36.4261 30.0278,39.7271 28.0278,43.2441 M48.0058,47.8321 C46.1738,45.2751 44.1888,43.1691 44.1888,38.4011 L44.1888,22.5661 C44.1888,15.8551 44.6548,9.7071 39.7158,5.0831 C35.8228,1.3271 29.3738,0.0011 24.4218,0.0011 C14.7528,0.0011 3.9668,3.6301 1.7038,15.5681 C1.4578,16.8361 2.3948,17.5051 3.2268,17.7041 L13.0658,18.7751 C13.9968,18.7231 14.6538,17.8151 14.8238,16.9071 C15.6788,12.7891 19.1248,10.7741 22.9858,10.7741 C25.0928,10.7741 27.4598,11.5741 28.6978,13.4391 C30.1178,15.5291 29.9348,18.3961 29.9348,20.8071 L29.9348,22.1321 C24.0378,22.7821 16.3478,23.2201 10.8258,25.6491 C4.4598,28.3891 -0.0002,34.0131 -0.0002,42.2671 C-0.0002,52.8181 6.6528,58.1181 15.1978,58.1181 C22.4148,58.1181 26.3758,56.3941 31.9588,50.7191 C33.7908,53.3801 34.4038,54.6701 37.7598,57.5011 C38.5228,57.8961 39.4968,57.8451 40.1718,57.2471 L40.2008,57.2821 C42.2308,55.4711 45.9118,52.2601 47.9798,50.5191 C48.8168,49.8471 48.6698,48.7401 48.0058,47.8321" id="Fill-13" fill="#FFFFFF" fill-rule="nonzero" mask="url(#mask-2)"/>
                    </g>
                </g>
                <path d="M161.2158,61.5031 C159.5938,64.3701 157.0248,66.1271 154.1768,66.1271 C150.2808,66.1271 147.9828,63.1551 147.9828,58.7601 C147.9828,50.1121 155.7578,48.5351 163.1098,48.5351 L163.1098,50.7301 C163.1098,54.6851 163.2008,57.9861 161.2158,61.5031 M181.1868,66.0911 C179.3438,63.5341 177.3578,61.4281 177.3578,56.6601 L177.3578,40.8251 C177.3578,34.1141 177.8448,27.9661 172.8938,23.3421 C168.9958,19.5861 162.5408,18.2601 157.5978,18.2601 C147.9308,18.2601 137.1398,21.8891 134.8828,33.8271 C134.6458,35.0951 135.5638,35.7641 136.3948,35.9631 L146.2368,37.0341 C147.1728,36.9821 147.8298,36.0741 148.0038,35.1661 C148.8448,31.0481 152.2938,29.0331 156.1648,29.0331 C158.2698,29.0331 160.6248,29.8331 161.8698,31.6981 C163.3038,33.7881 163.1098,36.6551 163.1098,39.0661 L163.1098,40.3911 C157.2158,41.0411 149.5138,41.4791 144.0048,43.9081 C137.6368,46.6481 133.1648,52.2721 133.1648,60.5261 C133.1648,71.0771 139.8248,76.3771 148.3818,76.3771 C155.6118,76.3771 159.5518,74.6531 165.1238,68.9781 C166.9648,71.6391 167.5828,72.9291 170.9468,75.7601 C171.7098,76.1551 172.6678,76.1041 173.3418,75.5061 L173.3798,75.5411 C175.3998,73.7301 179.0868,70.5191 181.1728,68.7781 C181.9838,68.1061 181.8418,66.9991 181.1868,66.0911" id="Fill-16" fill="#FFFFFF" fill-rule="nonzero"/>
                <g id="jobs">
                    <use fill="#000000" xlink:href="#path-3"/>
                    <use fill="#FFFFFF" xlink:href="#path-3"/>
                </g>
            </g>
        </g>
    </g>
</svg>
