<?xml version="1.0" encoding="UTF-8"?><svg id="Layer_1" xmlns="http://www.w3.org/2000/svg" viewBox="0 0 135 129"><defs><style>.cls-1{fill:#e4b974;}.cls-2{fill:#fff;}.cls-3{fill:#9cceed;}.cls-4{fill:#aad9ea;}.cls-5{fill:#adadad;}.cls-6{fill:#232f3e;}.cls-7{stroke-width:2.71px;}.cls-7,.cls-8,.cls-9{fill:none;stroke:#232f3e;stroke-linecap:round;stroke-linejoin:round;}.cls-8{stroke-width:2.12px;}.cls-9{stroke-width:3px;}</style></defs><g><path class="cls-5" d="M115.82,86.97V54.02h9.39c3.43,0,6.22,2.78,6.22,6.22v20.51c0,3.43-2.78,6.22-6.22,6.22h-9.39Z"/><path class="cls-5" d="M22.18,86.97V54.02s-9.39,0-9.39,0c-3.43,0-6.22,2.78-6.22,6.22v20.51c0,3.43,2.78,6.22,6.22,6.22h9.39Z"/></g><path class="cls-6" d="M97.26,12.23l-2.97,.83c-1.23,.34-2.34,.96-3.44,1.61-.91,.55-2.06,.65-3.09,.21l-3.23-1.38c-4.22-1.81-8.76-2.74-13.35-2.74h-10.18c-5.26,0-10.45,1.23-15.16,3.58l-.63,.32c-1,.5-2.15,.47-3.09-.02-1.44-.74-2.92-1.43-4.51-1.77l-1.76-.38S45.04,3.49,66.79,3.49s30.47,8.74,30.47,8.74Z"/><rect class="cls-6" x="56.58" y="115.44" width="23.86" height="10.81" rx="5.4" ry="5.4"/><g><polyline class="cls-3" points="115.65 53.88 108.35 53.88 108.35 87.11 115.65 87.11"/><polyline class="cls-3" points="22.35 53.88 29.65 53.88 29.65 87.11 22.35 87.11"/></g><g><path class="cls-9" d="M112.82,84.97V52.02h9.39c3.43,0,6.22,2.78,6.22,6.22v20.51c0,3.43-2.78,6.22-6.22,6.22h-9.39Z"/><path class="cls-9" d="M19.18,84.97V52.02s-9.39,0-9.39,0c-3.43,0-6.22,2.78-6.22,6.22v20.51c0,3.43,2.78,6.22,6.22,6.22h9.39Z"/></g><path class="cls-9" d="M11.99,50.9C11.99,22.79,34.78,3,62.89,3h6.83c28.11,0,50.9,19.79,50.9,47.9v.81"/><path class="cls-7" d="M97.26,11.49l-.51,.14c-2.04,.57-4.08,1.21-5.9,2.3-.91,.55-2.06,.65-3.09,.21l-3.23-1.38c-4.22-1.81-8.76-2.74-13.35-2.74h-10.18c-5.26,0-10.45,1.23-15.16,3.58l-.63,.32c-1,.5-2.15,.47-3.09-.02-1.44-.74-2.92-1.43-4.51-1.77l-1.76-.38S45.04,2.75,66.79,2.75s30.47,8.74,30.47,8.74Z"/><rect class="cls-8" x="56.58" y="114.75" width="23.86" height="10.81" rx="5.4" ry="5.4"/><path class="cls-9" d="M120.64,85.73h0c0,17.3-14.02,34.32-31.32,34.32h-9.07"/><g><polyline class="cls-9" points="112.65 51.88 105.35 51.88 105.35 85.11 112.65 85.11"/><polyline class="cls-9" points="19.35 51.88 26.65 51.88 26.65 85.11 19.35 85.11"/></g><polyline class="cls-1" points="73.79 86.52 94.94 86.52 94.94 58.36 42.49 58.36 42.49 86.52 62.64 86.52"/><polyline class="cls-2" points="68.07 86.52 73 86.52 73 60.31 60.42 60.31 60.42 86.52 65.35 86.52"/><g><rect class="cls-2" x="45.6" y="62.05" width="11.79" height="15.23"/><rect class="cls-2" x="76.25" y="62.05" width="11.79" height="15.23"/></g><path class="cls-4" d="M36.17,59.06h60.38c1.01,0,1.37-1.33,.5-1.84l-11.6-7.38H49.91l-13.74,9.22Z"/><polyline class="cls-9" points="40.78 57.27 40.78 84.19 60.93 84.19 60.93 62.05 72.07 62.05 72.07 84.19 92.22 84.19 92.22 57.27"/><g><rect class="cls-9" x="45.28" y="62.05" width="11.79" height="15.23"/><rect class="cls-9" x="75.93" y="62.05" width="11.79" height="15.23"/></g><polygon class="cls-9" points="34.99 56.69 98.01 56.69 84.27 47.48 48.73 47.48 34.99 56.69"/></svg>