<?xml version="1.0" encoding="UTF-8"?>
<svg id="a" xmlns="http://www.w3.org/2000/svg" viewBox="0 0 100 100"><defs><style>.b{fill:#c0e7f5;}.c{fill:#232f3e;}</style></defs><rect class="b" x="7.4" y="13.78" width="91.51" height="13.4" rx="2.71" ry="2.71"/><circle class="b" cx="72.17" cy="82.7" r="14.61"/><g><path class="c" d="M69.14,94.67c-8.25,0-14.96-6.71-14.96-14.96s6.71-14.96,14.96-14.96c2.44,0,4.86,.6,7,1.74,1.02,.54,1.41,1.81,.87,2.83-.54,1.02-1.81,1.41-2.83,.87-1.56-.83-3.26-1.25-5.04-1.25-5.94,0-10.77,4.83-10.77,10.77s4.83,10.77,10.77,10.77,10.38-4.42,10.74-10.07c.07-1.15,1.07-2.04,2.22-1.96,1.15,.07,2.03,1.07,1.96,2.22-.5,7.84-7.06,13.99-14.92,13.99Z"/><path class="c" d="M69.31,87.75c-.56,0-1.09-.22-1.49-.62l-6.68-6.72c-.82-.82-.81-2.15,0-2.96,.82-.82,2.15-.81,2.96,0l5.09,5.12,11.66-13.56c.75-.88,2.08-.98,2.95-.22,.88,.75,.98,2.08,.22,2.95l-13.14,15.28c-.38,.44-.93,.71-1.51,.73-.03,0-.05,0-.08,0Z"/><path class="c" d="M44.48,80.76H3.19c-1.16,0-2.09-.94-2.09-2.09V10.07c0-1.16,.94-2.09,2.09-2.09H93.3c1.16,0,2.09,.94,2.09,2.09v56.17c0,1.16-.94,2.09-2.09,2.09s-2.09-.94-2.09-2.09V12.17H5.29V76.57H44.48c1.16,0,2.09,.94,2.09,2.09s-.94,2.09-2.09,2.09Z"/><path class="c" d="M92.55,25.23H3.64c-1.16,0-2.09-.94-2.09-2.09s.94-2.09,2.09-2.09H92.55c1.16,0,2.09,.94,2.09,2.09s-.94,2.09-2.09,2.09Z"/><path class="c" d="M18.06,38.3c-1.73,0-3.15-1.41-3.15-3.15s1.41-3.15,3.15-3.15,3.15,1.41,3.15,3.15-1.41,3.15-3.15,3.15Z"/><path class="c" d="M32.54,38.3c-1.73,0-3.15-1.41-3.15-3.15s1.41-3.15,3.15-3.15,3.15,1.41,3.15,3.15-1.41,3.15-3.15,3.15Z"/><path class="c" d="M47.02,38.3c-1.73,0-3.15-1.41-3.15-3.15s1.41-3.15,3.15-3.15,3.15,1.41,3.15,3.15-1.41,3.15-3.15,3.15Z"/><path class="c" d="M61.51,38.3c-1.73,0-3.15-1.41-3.15-3.15s1.41-3.15,3.15-3.15,3.15,1.41,3.15,3.15-1.41,3.15-3.15,3.15Z"/><path class="c" d="M75.99,38.3c-1.73,0-3.15-1.41-3.15-3.15s1.41-3.15,3.15-3.15,3.15,1.41,3.15,3.15-1.41,3.15-3.15,3.15Z"/><path class="c" d="M18.06,19.98c-1.73,0-3.15-1.41-3.15-3.15s1.41-3.15,3.15-3.15,3.15,1.41,3.15,3.15-1.41,3.15-3.15,3.15Zm0-4.19c-.58,0-1.04,.47-1.04,1.04s.47,1.04,1.04,1.04,1.04-.47,1.04-1.04-.47-1.04-1.04-1.04Z"/><path class="c" d="M75.99,19.98c-1.73,0-3.15-1.41-3.15-3.15s1.41-3.15,3.15-3.15,3.15,1.41,3.15,3.15-1.41,3.15-3.15,3.15Zm0-4.19c-.58,0-1.04,.47-1.04,1.04s.47,1.04,1.04,1.04,1.04-.47,1.04-1.04-.47-1.04-1.04-1.04Z"/><path class="c" d="M18.06,52.12c-1.73,0-3.15-1.41-3.15-3.15s1.41-3.15,3.15-3.15,3.15,1.41,3.15,3.15-1.41,3.15-3.15,3.15Z"/><path class="c" d="M32.54,52.12c-1.73,0-3.15-1.41-3.15-3.15s1.41-3.15,3.15-3.15,3.15,1.41,3.15,3.15-1.41,3.15-3.15,3.15Z"/><path class="c" d="M47.02,52.12c-1.73,0-3.15-1.41-3.15-3.15s1.41-3.15,3.15-3.15,3.15,1.41,3.15,3.15-1.41,3.15-3.15,3.15Z"/><path class="c" d="M61.51,52.12c-1.73,0-3.15-1.41-3.15-3.15s1.41-3.15,3.15-3.15,3.15,1.41,3.15,3.15-1.41,3.15-3.15,3.15Z"/><path class="c" d="M75.99,52.12c-1.73,0-3.15-1.41-3.15-3.15s1.41-3.15,3.15-3.15,3.15,1.41,3.15,3.15-1.41,3.15-3.15,3.15Z"/><path class="c" d="M18.06,65.93c-1.73,0-3.15-1.41-3.15-3.15s1.41-3.15,3.15-3.15,3.15,1.41,3.15,3.15-1.41,3.15-3.15,3.15Z"/><path class="c" d="M32.54,65.93c-1.73,0-3.15-1.41-3.15-3.15s1.41-3.15,3.15-3.15,3.15,1.41,3.15,3.15-1.41,3.15-3.15,3.15Z"/><path class="c" d="M47.02,65.93c-1.73,0-3.15-1.41-3.15-3.15s1.41-3.15,3.15-3.15,3.15,1.41,3.15,3.15-1.41,3.15-3.15,3.15Z"/><path class="c" d="M76.09,18.93c-1.16,0-2.09-.94-2.09-2.09V4.79c0-1.16,.94-2.09,2.09-2.09s2.09,.94,2.09,2.09v12.04c0,1.16-.94,2.09-2.09,2.09Z"/><path class="c" d="M18.06,18.93c-1.16,0-2.09-.94-2.09-2.09V4.79c0-1.16,.94-2.09,2.09-2.09s2.09,.94,2.09,2.09v12.04c0,1.16-.94,2.09-2.09,2.09Z"/></g></svg>